<?xml version="1.0" standalone="no"?>
<!DOCTYPE svg PUBLIC "-//W3C//DTD SVG 20010904//EN"
 "http://www.w3.org/TR/2001/REC-SVG-20010904/DTD/svg10.dtd">
<svg version="1.0" xmlns="http://www.w3.org/2000/svg"
 width="700.000000pt" height="700.000000pt" viewBox="0 0 700.000000 700.000000"
 preserveAspectRatio="xMidYMid meet">
<metadata>
Created by potrace 1.11, written by Peter Selinger 2001-2013
</metadata>
<g transform="translate(0.000000,700.000000) scale(0.100000,-0.100000)"
fill="#000000" stroke="none">
<path d="M0 4521 l0 -2479 1457 2 1457 1 2 40 c6 105 15 202 19 225 3 14 8 45
11 69 3 24 17 87 29 140 13 53 21 98 18 101 -2 3 -545 5 -1206 5 l-1202 0 0
1895 0 1895 2625 1 2625 1 -1 -1267 0 -1267 75 -38 c117 -60 295 -184 407
-283 l100 -89 0 1763 0 1764 -3208 0 -3208 0 0 -2479z"/>
<path d="M2378 5810 c-110 -60 -151 -196 -90 -302 83 -144 111 -235 98 -322
-19 -128 -165 -202 -283 -145 -75 36 -150 151 -173 267 -16 73 -34 110 -73
145 -42 38 -92 58 -148 59 -153 1 -261 -155 -207 -297 26 -68 93 -126 161
-139 15 -3 39 -8 55 -12 92 -18 209 -100 243 -170 45 -95 4 -213 -91 -262 -75
-37 -206 -20 -305 40 -140 85 -230 90 -319 17 -103 -86 -100 -263 6 -340 91
-65 169 -65 280 2 193 117 365 103 429 -36 67 -146 -47 -288 -278 -346 -92
-23 -137 -55 -172 -123 -74 -143 34 -316 197 -316 112 0 197 78 222 202 23
117 95 230 173 270 78 39 182 17 240 -51 74 -88 58 -236 -43 -391 -32 -51 -35
-61 -35 -130 0 -65 4 -81 28 -117 39 -61 97 -95 171 -100 53 -4 68 -1 116 24
124 66 155 210 70 334 -64 94 -95 236 -70 315 37 115 180 171 283 111 79 -47
133 -133 166 -266 24 -97 56 -143 122 -177 191 -96 391 105 294 296 -34 67
-76 96 -176 121 -184 45 -293 145 -291 266 2 80 61 158 138 183 68 23 193 0
274 -49 123 -74 189 -87 268 -51 174 79 177 319 5 400 -39 18 -59 21 -110 17
-53 -4 -74 -12 -128 -47 -127 -82 -277 -101 -358 -44 -116 82 -119 235 -5 327
59 48 116 75 204 97 108 27 150 57 183 130 76 168 -73 350 -251 304 -95 -24
-139 -74 -168 -192 -34 -137 -106 -245 -186 -278 -70 -29 -171 -7 -221 47 -78
85 -68 235 26 387 38 63 45 82 47 135 4 78 -30 147 -94 191 -37 26 -54 31
-115 33 -57 3 -80 -1 -109 -17z m116 -928 c92 -64 102 -188 21 -268 -33 -33
-112 -50 -160 -34 -77 25 -131 107 -121 182 17 123 160 190 260 120z m303
-369 c88 -58 88 -189 0 -244 -40 -25 -121 -22 -159 7 -33 24 -58 75 -58 115 0
110 127 181 217 122z m-499 -72 c8 -1 27 -15 43 -32 68 -73 9 -188 -90 -177
-78 9 -118 99 -74 166 16 26 67 52 92 47 9 -2 22 -4 29 -4z"/>
<path d="M4808 3495 c-1 -1 -23 -6 -48 -9 -25 -3 -56 -8 -70 -11 -14 -2 -38
-7 -55 -10 -56 -11 -217 -66 -289 -99 -259 -119 -493 -331 -643 -583 -131
-222 -194 -445 -198 -713 -5 -251 38 -446 144 -665 181 -369 487 -632 887
-759 51 -17 62 -19 144 -36 152 -30 394 -32 530 -5 14 2 39 7 55 11 59 11 204
59 263 85 105 47 140 65 178 91 23 15 46 28 52 28 5 0 194 -185 419 -410 l409
-410 207 207 207 207 -408 408 c-224 225 -408 410 -410 412 -1 2 24 54 57 117
123 235 175 442 175 689 0 177 -17 288 -70 451 -120 372 -383 678 -734 855
-108 54 -246 103 -340 120 -14 2 -47 9 -75 15 -45 10 -378 22 -387 14z m291
-590 c25 -3 81 -18 125 -32 223 -70 408 -227 514 -439 33 -65 68 -162 77 -215
3 -19 8 -47 11 -64 9 -51 6 -188 -6 -256 -36 -209 -147 -401 -307 -532 -162
-132 -350 -199 -553 -197 -131 1 -174 8 -290 46 -211 70 -407 249 -507 464
-126 269 -97 606 75 856 135 198 377 347 602 371 25 3 46 6 48 7 4 5 168 -2
211 -9z"/>
<path d="M2203 1442 c-10 -10 -29 -32 -43 -48 -55 -64 -215 -250 -225 -260 -5
-6 -33 -37 -61 -70 -28 -32 -86 -99 -129 -149 -43 -49 -101 -117 -129 -149
-28 -33 -72 -84 -98 -114 -27 -31 -48 -58 -48 -62 0 -3 464 -6 1030 -6 l1030
0 -37 39 c-226 238 -377 492 -488 825 -3 9 -91 12 -395 12 -364 0 -391 -1
-407 -18z"/>
</g>
</svg>
